<svg width="16" height="16" viewBox="0 0 16 16" fill="none" xmlns="http://www.w3.org/2000/svg">
<g id="clock-check" clip-path="url(#clip0_233_302)">
<path id="Fill" opacity="0.12" d="M8 14.6666C11.6819 14.6666 14.6667 11.6818 14.6667 7.99992C14.6667 4.31802 11.6819 1.33325 8 1.33325C4.3181 1.33325 1.33333 4.31802 1.33333 7.99992C1.33333 11.6818 4.3181 14.6666 8 14.6666Z" fill="#101828"/>
<path id="Icon" d="M9.66666 12.6666L11 13.9999L14 10.9999M14.6568 8.3665C14.6633 8.24514 14.6667 8.12292 14.6667 7.99992C14.6667 4.31802 11.6819 1.33325 8 1.33325C4.3181 1.33325 1.33333 4.31802 1.33333 7.99992C1.33333 11.6235 4.22434 14.5719 7.82565 14.6644M8 3.99992V7.99992L10.4922 9.24604" stroke="#667085" stroke-width="1.5" stroke-linecap="round" stroke-linejoin="round"/>
</g>
<defs>
<clipPath id="clip0_233_302">
<rect width="16" height="16" fill="white"/>
</clipPath>
</defs>
</svg>
