<svg width="17" height="16" viewBox="0 0 17 16" fill="none" xmlns="http://www.w3.org/2000/svg">
<path opacity="0.12" d="M6.83398 2C4.07256 2 1.83398 4.23858 1.83398 7C1.83398 8.3774 2.39095 9.62472 3.29195 10.529L5.83398 10.6667V11.3333L8.50065 14L11.1673 11.3483V11.0018L13.834 11.1619C14.6483 10.4894 15.1673 9.47196 15.1673 8.33333C15.1673 6.30829 13.5257 4.66667 11.5007 4.66667C11.4202 4.66667 11.3405 4.66926 11.2613 4.67435C10.4243 3.08422 8.75578 2 6.83398 2Z" fill="#101828"/>
<path d="M5.83398 11.3333L8.50065 14M8.50065 14L11.1673 11.3333M8.50065 14V8M13.834 11.1619C14.6483 10.4894 15.1673 9.47196 15.1673 8.33333C15.1673 6.30829 13.5257 4.66667 11.5007 4.66667C11.355 4.66667 11.2187 4.59066 11.1447 4.46516C10.2754 2.98989 8.67027 2 6.83398 2C4.07256 2 1.83398 4.23858 1.83398 7C1.83398 8.3774 2.39095 9.62472 3.29195 10.529" stroke="#667085" stroke-width="1.5" stroke-linecap="round" stroke-linejoin="round"/>
</svg>
