<svg width="17" height="16" viewBox="0 0 17 16" fill="none" xmlns="http://www.w3.org/2000/svg">
<g id="edit-02">
<path id="Fill" opacity="0.12" d="M14.4997 4.66671C15.2361 3.93033 15.2361 2.73642 14.4997 2.00004C13.7633 1.26366 12.5694 1.26366 11.833 2.00004L9.83301 4.00004L12.4997 6.66671L14.4997 4.66671Z" fill="#101828"/>
<path id="Icon" d="M12.5003 6.66671L9.83368 4.00004M2.16699 14.3334L4.42324 14.0827C4.6989 14.0521 4.83673 14.0367 4.96556 13.995C5.07985 13.958 5.18862 13.9058 5.28892 13.8396C5.40196 13.7651 5.50002 13.667 5.69614 13.4709L14.5003 4.66671C15.2367 3.93033 15.2367 2.73642 14.5003 2.00004C13.764 1.26366 12.5701 1.26366 11.8337 2.00004L3.02948 10.8042C2.83336 11.0003 2.7353 11.0984 2.66075 11.2114C2.59461 11.3117 2.54234 11.4205 2.50533 11.5348C2.46363 11.6636 2.44831 11.8015 2.41769 12.0771L2.16699 14.3334Z" stroke="#667085" stroke-width="1.5" stroke-linecap="round" stroke-linejoin="round"/>
</g>
</svg>
