<svg width="16" height="16" viewBox="0 0 16 16" fill="none" xmlns="http://www.w3.org/2000/svg">
<g id="eraser">
<path id="Fill" opacity="0.12" d="M7.33301 4.00002L8.4036 2.92943C9.19563 2.1374 9.59165 1.74138 10.0483 1.593C10.45 1.46249 10.8827 1.46249 11.2844 1.593C11.741 1.74138 12.137 2.1374 12.9291 2.92943L13.0703 3.07062C13.8623 3.86265 14.2583 4.25867 14.4067 4.71532C14.5372 5.11701 14.5372 5.5497 14.4067 5.95139C14.2583 6.40805 13.8623 6.80406 13.0703 7.5961L11.9997 8.66669L7.33301 4.00002Z" fill="#101828"/>
<path id="Icon" d="M12 8.66669L7.33336 4.00002M14 14H5.33336M7.29153 13.3752L13.0706 7.5961C13.8626 6.80406 14.2587 6.40805 14.407 5.95139C14.5376 5.5497 14.5376 5.11701 14.407 4.71532C14.2587 4.25867 13.8626 3.86265 13.0706 3.07062L12.9294 2.92943C12.1374 2.1374 11.7414 1.74138 11.2847 1.593C10.883 1.46249 10.4503 1.46249 10.0487 1.593C9.592 1.74138 9.19598 2.1374 8.40395 2.92943L2.92943 8.40395C2.1374 9.19598 1.74138 9.592 1.593 10.0487C1.46249 10.4503 1.46249 10.883 1.593 11.2847C1.74138 11.7414 2.1374 12.1374 2.92943 12.9294L3.37518 13.3752C3.60579 13.6058 3.72109 13.7211 3.85564 13.8035C3.97494 13.8766 4.105 13.9305 4.24105 13.9632C4.3945 14 4.55756 14 4.88368 14H5.78303C6.10916 14 6.27222 14 6.42567 13.9632C6.56171 13.9305 6.69177 13.8766 6.81107 13.8035C6.94563 13.7211 7.06093 13.6058 7.29153 13.3752Z" stroke="#667085" stroke-width="1.5" stroke-linecap="round" stroke-linejoin="round"/>
</g>
</svg>
