<svg width="16" height="16" viewBox="0 0 16 16" fill="none" xmlns="http://www.w3.org/2000/svg">
<g id="file-02">
<path id="Fill" opacity="0.12" d="M2.66667 4.53325C2.66667 3.41315 2.66667 2.85309 2.88466 2.42527C3.07641 2.04895 3.38237 1.74299 3.75869 1.55124C4.18651 1.33325 4.74657 1.33325 5.86667 1.33325H10.1333C11.2534 1.33325 11.8135 1.33325 12.2413 1.55124C12.6176 1.74299 12.9236 2.04895 13.1154 2.42527C13.3333 2.85309 13.3333 3.41315 13.3333 4.53325V11.4666C13.3333 12.5867 13.3333 13.1467 13.1154 13.5746C12.9236 13.9509 12.6176 14.2569 12.2413 14.4486C11.8135 14.6666 11.2534 14.6666 10.1333 14.6666H5.86667C4.74657 14.6666 4.18651 14.6666 3.75869 14.4486C3.38237 14.2569 3.07641 13.9509 2.88466 13.5746C2.66667 13.1467 2.66667 12.5867 2.66667 11.4666V4.53325Z" fill="#101828"/>
<path id="Icon" d="M9.33334 7.33325H5.33334M6.66667 9.99992H5.33334M10.6667 4.66659H5.33334M13.3333 4.53325V11.4666C13.3333 12.5867 13.3333 13.1467 13.1154 13.5746C12.9236 13.9509 12.6176 14.2569 12.2413 14.4486C11.8135 14.6666 11.2534 14.6666 10.1333 14.6666H5.86667C4.74657 14.6666 4.18651 14.6666 3.75869 14.4486C3.38237 14.2569 3.07641 13.9509 2.88466 13.5746C2.66667 13.1467 2.66667 12.5867 2.66667 11.4666V4.53325C2.66667 3.41315 2.66667 2.85309 2.88466 2.42527C3.07641 2.04895 3.38237 1.74299 3.75869 1.55124C4.18651 1.33325 4.74657 1.33325 5.86667 1.33325H10.1333C11.2534 1.33325 11.8135 1.33325 12.2413 1.55124C12.6176 1.74299 12.9236 2.04895 13.1154 2.42527C13.3333 2.85309 13.3333 3.41315 13.3333 4.53325Z" stroke="#667085" stroke-width="1.5" stroke-linecap="round" stroke-linejoin="round"/>
</g>
</svg>
