<svg width="17" height="16" viewBox="0 0 17 16" fill="none" xmlns="http://www.w3.org/2000/svg">
<g id="file-05">
<path id="Fill" opacity="0.12" d="M13.2472 4.74763L10.4188 1.91921C10.2478 1.74819 10.049 1.61134 9.83301 1.51306V4.26676C9.83301 4.64012 9.83301 4.82681 9.90567 4.96941C9.96959 5.09486 10.0716 5.19684 10.197 5.26076C10.3396 5.33342 10.5263 5.33342 10.8997 5.33342H13.6534C13.5551 5.11745 13.4182 4.91865 13.2472 4.74763Z" fill="#101828"/>
<path id="Icon" d="M9.83366 1.51306V4.26676C9.83366 4.64012 9.83366 4.82681 9.90632 4.96942C9.97024 5.09486 10.0722 5.19684 10.1977 5.26076C10.3403 5.33342 10.527 5.33342 10.9003 5.33342H13.654M9.83366 11.3334H5.83366M11.167 8.66671H5.83366M13.8337 6.65886V11.4667C13.8337 12.5868 13.8337 13.1469 13.6157 13.5747C13.4239 13.951 13.118 14.257 12.7416 14.4487C12.3138 14.6667 11.7538 14.6667 10.6337 14.6667H6.36699C5.24689 14.6667 4.68683 14.6667 4.25901 14.4487C3.88269 14.257 3.57673 13.951 3.38498 13.5747C3.16699 13.1469 3.16699 12.5868 3.16699 11.4667V4.53337C3.16699 3.41327 3.16699 2.85322 3.38498 2.42539C3.57673 2.04907 3.88269 1.74311 4.25901 1.55136C4.68683 1.33337 5.24689 1.33337 6.36699 1.33337H8.50818C8.99736 1.33337 9.24195 1.33337 9.47212 1.38863C9.67619 1.43763 9.87128 1.51844 10.0502 1.62809C10.2521 1.75178 10.425 1.92473 10.7709 2.27063L12.8964 4.39612C13.2423 4.74202 13.4153 4.91497 13.5389 5.1168C13.6486 5.29575 13.7294 5.49084 13.7784 5.69491C13.8337 5.92509 13.8337 6.16968 13.8337 6.65886Z" stroke="#667085" stroke-width="1.5" stroke-linecap="round" stroke-linejoin="round"/>
</g>
</svg>
