<svg width="20" height="20" viewBox="0 0 20 20" fill="none" xmlns="http://www.w3.org/2000/svg">
<g id="lock-01">
<path id="Fill" opacity="0.12" d="M3.33301 12.3335C3.33301 10.9334 3.33301 10.2333 3.60549 9.69852C3.84517 9.22811 4.22763 8.84566 4.69803 8.60598C5.23281 8.3335 5.93288 8.3335 7.33301 8.3335H12.6663C14.0665 8.3335 14.7665 8.3335 15.3013 8.60598C15.7717 8.84566 16.1542 9.22811 16.3939 9.69852C16.6663 10.2333 16.6663 10.9334 16.6663 12.3335V13.5002C16.6663 14.9003 16.6663 15.6004 16.3939 16.1351C16.1542 16.6055 15.7717 16.988 15.3013 17.2277C14.7665 17.5002 14.0665 17.5002 12.6663 17.5002H7.33301C5.93288 17.5002 5.23281 17.5002 4.69803 17.2277C4.22763 16.988 3.84517 16.6055 3.60549 16.1351C3.33301 15.6004 3.33301 14.9003 3.33301 13.5002V12.3335Z" fill="#101828"/>
<path id="Icon" d="M14.1663 8.33333V6.66667C14.1663 4.36548 12.3009 2.5 9.99967 2.5C7.69849 2.5 5.83301 4.36548 5.83301 6.66667V8.33333M9.99967 12.0833V13.75M7.33301 17.5H12.6663C14.0665 17.5 14.7665 17.5 15.3013 17.2275C15.7717 16.9878 16.1542 16.6054 16.3939 16.135C16.6663 15.6002 16.6663 14.9001 16.6663 13.5V12.3333C16.6663 10.9332 16.6663 10.2331 16.3939 9.69836C16.1542 9.22795 15.7717 8.8455 15.3013 8.60582C14.7665 8.33333 14.0665 8.33333 12.6663 8.33333H7.33301C5.93288 8.33333 5.23281 8.33333 4.69803 8.60582C4.22763 8.8455 3.84517 9.22795 3.60549 9.69836C3.33301 10.2331 3.33301 10.9332 3.33301 12.3333V13.5C3.33301 14.9001 3.33301 15.6002 3.60549 16.135C3.84517 16.6054 4.22763 16.9878 4.69803 17.2275C5.23281 17.5 5.93288 17.5 7.33301 17.5Z" stroke="#344054" stroke-width="1.66667" stroke-linecap="round" stroke-linejoin="round"/>
</g>
</svg>
