<svg width="16" height="16" viewBox="0 0 16 16" fill="none" xmlns="http://www.w3.org/2000/svg">
<g id="passcode">
<path id="Fill" opacity="0.12" d="M12.5333 4.66675H3.46666C2.71992 4.66675 2.34656 4.66675 2.06134 4.81207C1.81046 4.9399 1.60648 5.14388 1.47865 5.39476C1.33333 5.67998 1.33333 6.05334 1.33333 6.80008V9.20008C1.33333 9.94682 1.33333 10.3202 1.47865 10.6054C1.60648 10.8563 1.81046 11.0603 2.06134 11.1881C2.34656 11.3334 2.71993 11.3334 3.46666 11.3334H12.5333C13.2801 11.3334 13.6534 11.3334 13.9387 11.1881C14.1895 11.0603 14.3935 10.8563 14.5213 10.6054C14.6667 10.3202 14.6667 9.94682 14.6667 9.20008V6.80008C14.6667 6.05334 14.6667 5.67998 14.5213 5.39476C14.3935 5.14388 14.1895 4.9399 13.9387 4.81207C13.6534 4.66675 13.2801 4.66675 12.5333 4.66675Z" fill="#101828"/>
<path id="Icon" d="M8 8.00008H8.00333M11.3333 8.00008H11.3367M4.66666 8.00008H4.67M3.46666 4.66675H12.5333C13.2801 4.66675 13.6534 4.66675 13.9386 4.81207C14.1895 4.9399 14.3935 5.14388 14.5213 5.39476C14.6667 5.67998 14.6667 6.05334 14.6667 6.80008V9.20008C14.6667 9.94682 14.6667 10.3202 14.5213 10.6054C14.3935 10.8563 14.1895 11.0603 13.9386 11.1881C13.6534 11.3334 13.2801 11.3334 12.5333 11.3334H3.46666C2.71993 11.3334 2.34656 11.3334 2.06134 11.1881C1.81046 11.0603 1.60648 10.8563 1.47865 10.6054C1.33333 10.3202 1.33333 9.94682 1.33333 9.20008V6.80008C1.33333 6.05334 1.33333 5.67998 1.47865 5.39476C1.60648 5.14388 1.81046 4.9399 2.06134 4.81207C2.34656 4.66675 2.71992 4.66675 3.46666 4.66675ZM8.16666 8.00008C8.16666 8.09213 8.09204 8.16675 8 8.16675C7.90795 8.16675 7.83333 8.09213 7.83333 8.00008C7.83333 7.90803 7.90795 7.83341 8 7.83341C8.09204 7.83341 8.16666 7.90803 8.16666 8.00008ZM11.5 8.00008C11.5 8.09213 11.4254 8.16675 11.3333 8.16675C11.2413 8.16675 11.1667 8.09213 11.1667 8.00008C11.1667 7.90803 11.2413 7.83341 11.3333 7.83341C11.4254 7.83341 11.5 7.90803 11.5 8.00008ZM4.83333 8.00008C4.83333 8.09213 4.75871 8.16675 4.66666 8.16675C4.57461 8.16675 4.5 8.09213 4.5 8.00008C4.5 7.90803 4.57461 7.83341 4.66666 7.83341C4.75871 7.83341 4.83333 7.90803 4.83333 8.00008Z" stroke="#667085" stroke-width="1.5" stroke-linecap="round" stroke-linejoin="round"/>
</g>
</svg>
