<svg width="17" height="16" viewBox="0 0 17 16" fill="none" xmlns="http://www.w3.org/2000/svg">
<g id="trash-01">
<path id="Fill" opacity="0.12" d="M13.1663 11.4667V4H3.83301V11.4667C3.83301 12.5868 3.83301 13.1468 4.05099 13.5746C4.24274 13.951 4.5487 14.2569 4.92503 14.4487C5.35285 14.6667 5.9129 14.6667 7.03301 14.6667H9.96634C11.0864 14.6667 11.6465 14.6667 12.0743 14.4487C12.4506 14.2569 12.7566 13.951 12.9484 13.5746C13.1663 13.1468 13.1663 12.5868 13.1663 11.4667Z" fill="#101828"/>
<path id="Icon" d="M11.1667 3.99992V3.46659C11.1667 2.71985 11.1667 2.34648 11.0213 2.06126C10.8935 1.81038 10.6895 1.60641 10.4387 1.47858C10.1534 1.33325 9.78007 1.33325 9.03333 1.33325H7.96667C7.21993 1.33325 6.84656 1.33325 6.56135 1.47858C6.31046 1.60641 6.10649 1.81038 5.97866 2.06126C5.83333 2.34648 5.83333 2.71985 5.83333 3.46659V3.99992M7.16667 7.66659V10.9999M9.83333 7.66659V10.9999M2.5 3.99992H14.5M13.1667 3.99992V11.4666C13.1667 12.5867 13.1667 13.1467 12.9487 13.5746C12.7569 13.9509 12.451 14.2569 12.0746 14.4486C11.6468 14.6666 11.0868 14.6666 9.96667 14.6666H7.03333C5.91323 14.6666 5.35318 14.6666 4.92535 14.4486C4.54903 14.2569 4.24307 13.9509 4.05132 13.5746C3.83333 13.1467 3.83333 12.5867 3.83333 11.4666V3.99992" stroke="#667085" stroke-width="1.5" stroke-linecap="round" stroke-linejoin="round"/>
</g>
</svg>
