<svg width="16" height="16" viewBox="0 0 16 16" fill="none" xmlns="http://www.w3.org/2000/svg">
<g id="user-circle" clip-path="url(#clip0_233_284)">
<g id="Fill" opacity="0.12">
<path d="M12.4559 12.959C11.2751 14.0207 9.71301 14.6667 8.00007 14.6667C6.28713 14.6667 4.72507 14.0207 3.54427 12.959C3.94982 12.0035 4.89668 11.3334 6.00007 11.3334H10.0001C11.1035 11.3334 12.0503 12.0036 12.4559 12.959Z" fill="#101828"/>
<path d="M8 9.00008C9.47275 9.00008 10.6667 7.80617 10.6667 6.33341C10.6667 4.86066 9.47275 3.66675 8 3.66675C6.52724 3.66675 5.33333 4.86066 5.33333 6.33341C5.33333 7.80617 6.52724 9.00008 8 9.00008Z" fill="#101828"/>
</g>
<path id="Icon" d="M3.54419 12.9589C3.94974 12.0034 4.89661 11.3333 6 11.3333H10C11.1034 11.3333 12.0502 12.0034 12.4558 12.9589M10.6667 6.33325C10.6667 7.80601 9.47275 8.99992 8 8.99992C6.52724 8.99992 5.33333 7.80601 5.33333 6.33325C5.33333 4.86049 6.52724 3.66659 8 3.66659C9.47275 3.66659 10.6667 4.86049 10.6667 6.33325ZM14.6667 7.99992C14.6667 11.6818 11.6819 14.6666 8 14.6666C4.3181 14.6666 1.33333 11.6818 1.33333 7.99992C1.33333 4.31802 4.3181 1.33325 8 1.33325C11.6819 1.33325 14.6667 4.31802 14.6667 7.99992Z" stroke="#667085" stroke-width="1.5" stroke-linecap="round" stroke-linejoin="round"/>
</g>
<defs>
<clipPath id="clip0_233_284">
<rect width="16" height="16" fill="white"/>
</clipPath>
</defs>
</svg>
